<svg width="14" height="14" viewBox="0 0 14 14" fill="none" xmlns="http://www.w3.org/2000/svg">
    <path
        d="M7.33331 13.8333C3.74665 13.8333 0.833313 10.92 0.833313 7.33331C0.833313 3.74665 3.74665 0.833313 7.33331 0.833313C7.60665 0.833313 7.83331 1.05998 7.83331 1.33331C7.83331 1.60665 7.60665 1.83331 7.33331 1.83331C4.29998 1.83331 1.83331 4.29998 1.83331 7.33331C1.83331 10.3666 4.29998 12.8333 7.33331 12.8333C10.3666 12.8333 12.8333 10.3666 12.8333 7.33331C12.8333 7.05998 13.06 6.83331 13.3333 6.83331C13.6066 6.83331 13.8333 7.05998 13.8333 7.33331C13.8333 10.92 10.92 13.8333 7.33331 13.8333Z"
        fill="#292D32" />
</svg>