<svg width="120" height="33" viewBox="0 0 120 33" fill="none" xmlns="http://www.w3.org/2000/svg">
    <path
        d="M29.8792 20.6766L16.0754 30.3615C15.8529 30.5178 15.5538 30.5176 15.3314 30.3615L1.52789 20.6766C1.30527 20.5204 1.21264 20.2458 1.29767 19.9932L6.57024 4.3223C6.6553 4.0696 6.89731 3.89985 7.17245 3.89985H24.2347C24.5096 3.89985 24.7516 4.0696 24.8367 4.3223L30.1093 19.9932C30.1943 20.2458 30.1017 20.5204 29.8792 20.6766ZM31.3133 19.6154L26.0407 3.9445C25.7858 3.18644 25.0599 2.67719 24.2347 2.67719H7.17245C6.34694 2.67719 5.62133 3.18644 5.36621 3.9445L0.093637 19.6154C-0.161249 20.3732 0.115819 21.1972 0.783648 21.6657L14.5872 31.3507C14.921 31.585 15.3123 31.702 15.7035 31.702C16.0946 31.702 16.4859 31.5848 16.8197 31.3507L30.6235 21.6657C31.2911 21.1972 31.5682 20.3732 31.3133 19.6154Z"
        fill="#56A3ED" />
    <path
        d="M29.8848 11.0254L16.0811 1.34043C15.8584 1.18413 15.5594 1.18437 15.3371 1.34043L1.5335 11.0254C1.31089 11.1816 1.21826 11.4562 1.30328 11.7088L6.57586 27.3797C6.66091 27.6324 6.90293 27.8022 7.17807 27.8022H24.2403C24.5152 27.8022 24.7573 27.6324 24.8423 27.3797L30.1148 11.7088C30.1999 11.4562 30.1072 11.1816 29.8848 11.0254ZM31.3188 12.0865L26.0463 27.7575C25.7914 28.5156 25.0656 29.0248 24.2403 29.0248H7.17807C6.35256 29.0248 5.6269 28.5155 5.37183 27.7575L0.0992523 12.0865C-0.155633 11.3288 0.121434 10.5048 0.78926 10.0362L14.5929 0.351296C14.9267 0.116985 15.3179 0 15.7091 0C16.1003 0 16.4915 0.11718 16.8253 0.351296L30.6291 10.0362C31.2967 10.5048 31.5738 11.3288 31.3188 12.0865Z"
        fill="#56A3ED" />
    <path
        d="M43.1894 23.1977C44.3791 23.1977 45.3287 22.8302 46.0383 22.0941C46.7478 21.3587 47.1029 20.3858 47.1029 19.1766V16.4554C47.1029 15.2462 46.7478 14.274 46.0383 13.5379C45.3287 12.8023 44.3791 12.4345 43.1894 12.4345C42.1455 12.4345 41.2688 12.6815 40.5596 13.175C39.8498 13.6694 39.4951 14.3194 39.4951 15.1253V20.5069C39.4951 21.3132 39.8498 21.9633 40.5596 22.457C41.2688 22.951 42.1455 23.1977 43.1894 23.1977ZM36.0825 5.6619H39.4951V12.5553H39.6517C40.0063 11.6081 40.5855 10.8774 41.3893 10.3635C42.1924 9.84951 43.137 9.59242 44.2226 9.59242C46.2889 9.59242 47.8855 10.3133 49.0128 11.7542C50.1398 13.1954 50.7033 15.216 50.7033 17.816C50.7033 20.4162 50.1398 22.4373 49.0128 23.878C47.8855 25.3193 46.2889 26.0396 44.2226 26.0396C43.137 26.0396 42.1924 25.7775 41.3893 25.2537C40.5855 24.7298 40.0063 24.0041 39.6517 23.0767H39.4951V25.6769H36.0825V5.6619Z"
        fill="#17568B" />
    <path
        d="M55.7438 25.6769C54.5745 25.6769 53.7033 25.3895 53.1292 24.8152C52.5551 24.2407 52.2686 23.4397 52.2686 22.4118V5.6619H55.6809V21.5005C55.666 22.6378 55.8551 22.9694 56.7023 22.9861H57.935V25.6769H55.7438Z"
        fill="#17568B" />
    <path
        d="M68.5791 23.0767C68.4327 23.4599 68.2397 23.8326 67.9997 24.1955C67.7592 24.5584 67.4568 24.8756 67.092 25.1477C66.7268 25.4199 66.288 25.6367 65.7768 25.798C65.2652 25.9589 64.6757 26.0396 64.008 26.0396C62.3175 26.0396 61.0076 25.5159 60.0792 24.4675C59.15 23.4197 58.6858 21.9178 58.6858 19.9626V9.95514H62.0986V19.5396C62.0986 21.9784 63.1421 23.1977 65.2292 23.1977C65.6674 23.1977 66.0951 23.1424 66.5127 23.0313C66.9298 22.9206 67.3004 22.7546 67.6239 22.5324C67.9474 22.3109 68.208 22.0289 68.4068 21.6859C68.605 21.3434 68.7044 20.9406 68.7044 20.4765V9.95514H72.1167V21.1413C72.1354 22.864 73.2658 23.1675 74.7509 23.2421V25.9071C72.8468 26.0071 69.2036 25.8286 68.7044 23.0767H68.5791Z"
        fill="#17568B" />
    <path
        d="M96.2063 23.1977C97.2493 23.1977 98.1263 22.951 98.8362 22.457C99.5452 21.9633 99.9004 21.3132 99.9004 20.5069V15.1253C99.9004 14.3194 99.5452 13.6694 98.8362 13.175C98.1263 12.6814 97.2493 12.4345 96.2063 12.4345C95.0164 12.4345 94.0665 12.8023 93.3575 13.5379C92.6476 14.2739 92.2929 15.2461 92.2929 16.4554V19.1767C92.2929 20.3859 92.6476 21.3587 93.3575 22.0941C94.0665 22.8301 95.0164 23.1977 96.2063 23.1977ZM99.9004 23.0767H99.7439C99.3882 24.0041 98.8093 24.7298 98.0063 25.2537C97.2028 25.7776 96.2581 26.0397 95.1729 26.0397C93.1065 26.0397 91.51 25.3193 90.3829 23.878C89.2559 22.4373 88.6924 20.4162 88.6924 17.816C88.6924 15.216 89.2559 13.1953 90.3829 11.7542C91.51 10.3133 93.1065 9.59241 95.1729 9.59241C96.2581 9.59241 97.2028 9.84954 98.0063 10.3635C98.8093 10.8774 99.3882 11.6081 99.7439 12.5553H99.9004L100.683 9.95534H103.313V25.6769H99.9004V23.0767Z"
        fill="#17568B" />
    <path
        d="M109.324 25.6769C108.155 25.6769 107.284 25.3895 106.709 24.8152C106.135 24.2407 105.848 23.4397 105.848 22.4118V5.6619H109.261V21.5005C109.246 22.6378 109.435 22.9694 110.283 22.9861H111.515V25.6769H109.324Z"
        fill="#17568B" />
    <path
        d="M116.775 25.6769C115.585 25.6769 114.688 25.3798 114.083 24.785C113.478 24.1905 113.174 23.3487 113.174 22.2604V12.646H110.639V9.95535H112.017C112.58 9.95535 112.971 9.83425 113.191 9.59242C113.41 9.3505 113.519 8.95762 113.519 8.41335V5.6619H116.588V9.95535H120V12.646H116.588V21.8325C116.614 22.5674 116.686 22.9843 117.621 22.9861H119.75V25.6769H116.775Z"
        fill="#17568B" />
    <path
        d="M74.7068 20.5176C75.0231 20.495 75.3442 20.5075 75.6658 20.559C76.2058 20.6457 76.7516 20.8347 77.2474 21.1855C77.2474 21.1855 78.6773 22.4507 79.3162 22.7897C80.0569 23.1825 80.9175 23.3789 81.8991 23.3789C82.9009 23.3789 83.6468 23.1929 84.1373 22.8197C84.6279 22.447 84.8732 21.9278 84.8732 21.2626C84.8732 20.7592 84.7009 20.3306 84.3567 19.9777C84.0125 19.6253 83.4121 19.3985 82.5567 19.2975L81.0533 19.1159C79.3834 18.9147 78.074 18.4461 77.1245 17.71C76.1746 16.9746 75.6999 15.8809 75.6999 14.4296C75.6999 13.6641 75.8458 12.9838 76.1381 12.389C76.4305 11.7948 76.8428 11.2905 77.3751 10.8772C77.9074 10.4644 78.5439 10.1469 79.2845 9.9249C80.0257 9.70324 80.845 9.59241 81.7426 9.59241C83.2033 9.59241 84.398 9.81426 85.3273 10.2575C86.2556 10.7009 87.085 11.3156 87.8161 12.1017L85.7185 14.0368C85.3009 13.5527 84.7527 13.1348 84.0749 12.7818C83.3962 12.4295 82.6191 12.2529 81.7426 12.2529C80.8033 12.2529 80.1092 12.4342 79.6604 12.7971C79.2116 13.1599 78.9874 13.6337 78.9874 14.2181C78.9874 14.8227 79.1857 15.2764 79.5821 15.5786C79.9786 15.8809 80.6156 16.1031 81.4921 16.2439L82.9949 16.425C84.7892 16.6873 86.0991 17.1961 86.9237 17.9519C87.7484 18.7077 88.1607 19.7207 88.1607 20.9907C88.1607 21.7568 88.009 22.447 87.7066 23.0616C87.4037 23.6767 86.9708 24.2057 86.4073 24.6488C85.8437 25.0923 85.1655 25.435 84.3725 25.6769C83.5786 25.9186 82.6921 26.0397 81.7114 26.0397C80.1663 26.0397 78.8722 25.7776 77.8292 25.2535C77.0324 24.8537 76.3153 24.3355 75.6773 23.7001C75.4191 23.4435 75.0629 23.3187 74.7068 23.337V20.5176Z"
        fill="#17568B" />
</svg>